<svg width="88" height="12" viewBox="0 0 88 12" fill="none" xmlns="http://www.w3.org/2000/svg">
<path d="M10.815 0.47L7.08 11H3.87L0.135 0.47H2.865L5.475 8.42L8.1 0.47H10.815ZM17.257 11L15.067 7.025H14.452V11H11.887V0.47H16.192C17.022 0.47 17.727 0.615 18.307 0.904999C18.897 1.195 19.337 1.595 19.627 2.105C19.917 2.605 20.062 3.165 20.062 3.785C20.062 4.485 19.862 5.11 19.462 5.66C19.072 6.21 18.492 6.6 17.722 6.83L20.152 11H17.257ZM14.452 5.21H16.042C16.512 5.21 16.862 5.095 17.092 4.865C17.332 4.635 17.452 4.31 17.452 3.89C17.452 3.49 17.332 3.175 17.092 2.945C16.862 2.715 16.512 2.6 16.042 2.6H14.452V5.21ZM29.2472 0.47V2.525H26.4572V11H23.8922V2.525H21.1022V0.47H29.2472ZM33.0995 2.525V4.655H36.5345V6.635H33.0995V8.945H36.9845V11H30.5345V0.47H36.9845V2.525H33.0995ZM38.2147 5.72C38.2147 4.68 38.4397 3.755 38.8897 2.945C39.3397 2.125 39.9647 1.49 40.7647 1.04C41.5747 0.579999 42.4897 0.349999 43.5097 0.349999C44.7597 0.349999 45.8297 0.679999 46.7197 1.34C47.6097 2 48.2047 2.9 48.5047 4.04H45.6847C45.4747 3.6 45.1747 3.265 44.7847 3.035C44.4047 2.805 43.9697 2.69 43.4797 2.69C42.6897 2.69 42.0497 2.965 41.5597 3.515C41.0697 4.065 40.8247 4.8 40.8247 5.72C40.8247 6.64 41.0697 7.375 41.5597 7.925C42.0497 8.475 42.6897 8.75 43.4797 8.75C43.9697 8.75 44.4047 8.635 44.7847 8.405C45.1747 8.175 45.4747 7.84 45.6847 7.4H48.5047C48.2047 8.54 47.6097 9.44 46.7197 10.1C45.8297 10.75 44.7597 11.075 43.5097 11.075C42.4897 11.075 41.5747 10.85 40.7647 10.4C39.9647 9.94 39.3397 9.305 38.8897 8.495C38.4397 7.685 38.2147 6.76 38.2147 5.72ZM59.1955 0.47V11H56.6305V6.665H52.6405V11H50.0755V0.47H52.6405V4.595H56.6305V0.47H59.1955ZM64.8572 11.105C64.0872 11.105 63.3972 10.98 62.7872 10.73C62.1772 10.48 61.6872 10.11 61.3172 9.62C60.9572 9.13 60.7672 8.54 60.7472 7.85H63.4772C63.5172 8.24 63.6522 8.54 63.8822 8.75C64.1122 8.95 64.4122 9.05 64.7822 9.05C65.1622 9.05 65.4622 8.965 65.6822 8.795C65.9022 8.615 66.0122 8.37 66.0122 8.06C66.0122 7.8 65.9222 7.585 65.7422 7.415C65.5722 7.245 65.3572 7.105 65.0972 6.995C64.8472 6.885 64.4872 6.76 64.0172 6.62C63.3372 6.41 62.7822 6.2 62.3522 5.99C61.9222 5.78 61.5522 5.47 61.2422 5.06C60.9322 4.65 60.7772 4.115 60.7772 3.455C60.7772 2.475 61.1322 1.71 61.8422 1.16C62.5522 0.6 63.4772 0.32 64.6172 0.32C65.7772 0.32 66.7122 0.6 67.4222 1.16C68.1322 1.71 68.5122 2.48 68.5622 3.47H65.7872C65.7672 3.13 65.6422 2.865 65.4122 2.675C65.1822 2.475 64.8872 2.375 64.5272 2.375C64.2172 2.375 63.9672 2.46 63.7772 2.63C63.5872 2.79 63.4922 3.025 63.4922 3.335C63.4922 3.675 63.6522 3.94 63.9722 4.13C64.2922 4.32 64.7922 4.525 65.4722 4.745C66.1522 4.975 66.7022 5.195 67.1222 5.405C67.5522 5.615 67.9222 5.92 68.2322 6.32C68.5422 6.72 68.6972 7.235 68.6972 7.865C68.6972 8.465 68.5422 9.01 68.2322 9.5C67.9322 9.99 67.4922 10.38 66.9122 10.67C66.3322 10.96 65.6472 11.105 64.8572 11.105ZM75.2557 11.105C74.2657 11.105 73.3557 10.875 72.5257 10.415C71.7057 9.955 71.0507 9.315 70.5607 8.495C70.0807 7.665 69.8407 6.735 69.8407 5.705C69.8407 4.675 70.0807 3.75 70.5607 2.93C71.0507 2.11 71.7057 1.47 72.5257 1.01C73.3557 0.55 74.2657 0.32 75.2557 0.32C76.2457 0.32 77.1507 0.55 77.9707 1.01C78.8007 1.47 79.4507 2.11 79.9207 2.93C80.4007 3.75 80.6407 4.675 80.6407 5.705C80.6407 6.735 80.4007 7.665 79.9207 8.495C79.4407 9.315 78.7907 9.955 77.9707 10.415C77.1507 10.875 76.2457 11.105 75.2557 11.105ZM75.2557 8.765C76.0957 8.765 76.7657 8.485 77.2657 7.925C77.7757 7.365 78.0307 6.625 78.0307 5.705C78.0307 4.775 77.7757 4.035 77.2657 3.485C76.7657 2.925 76.0957 2.645 75.2557 2.645C74.4057 2.645 73.7257 2.92 73.2157 3.47C72.7157 4.02 72.4657 4.765 72.4657 5.705C72.4657 6.635 72.7157 7.38 73.2157 7.94C73.7257 8.49 74.4057 8.765 75.2557 8.765ZM84.6327 9.02H87.9927V11H82.0677V0.47H84.6327V9.02Z" fill="#00CFC5"/>
</svg>
