<svg width="25" height="25" viewBox="0 0 25 25" fill="none" xmlns="http://www.w3.org/2000/svg">
<path d="M9.16658 19.1548L9.58253 18.8773C9.48978 18.7383 9.33371 18.6548 9.16658 18.6548V19.1548ZM12.4999 24.1515L12.084 24.429C12.1767 24.568 12.3328 24.6515 12.4999 24.6515C12.667 24.6515 12.8231 24.568 12.9159 24.429L12.4999 24.1515ZM15.8333 19.1548V18.6548C15.6661 18.6548 15.5101 18.7383 15.4173 18.8773L15.8333 19.1548ZM8.75064 19.4322L12.084 24.429L12.9159 23.874L9.58253 18.8773L8.75064 19.4322ZM12.9159 24.429L16.2492 19.4322L15.4173 18.8773L12.084 23.874L12.9159 24.429ZM15.8333 19.6548H22.4999V18.6548H15.8333V19.6548ZM22.4999 19.6548C23.6974 19.6548 24.6666 18.6867 24.6666 17.4892H23.6666C23.6666 18.1338 23.1458 18.6548 22.4999 18.6548V19.6548ZM24.6666 17.4892V2.49895H23.6666V17.4892H24.6666ZM24.6666 2.49895C24.6666 1.30144 23.6974 0.333374 22.4999 0.333374V1.33337C23.1458 1.33337 23.6666 1.85434 23.6666 2.49895H24.6666ZM22.4999 0.333374H2.49992V1.33337H22.4999V0.333374ZM2.49992 0.333374C1.30242 0.333374 0.333252 1.30144 0.333252 2.49895H1.33325C1.33325 1.85434 1.85409 1.33337 2.49992 1.33337V0.333374ZM0.333252 2.49895V17.4892H1.33325V2.49895H0.333252ZM0.333252 17.4892C0.333252 18.6867 1.30242 19.6548 2.49992 19.6548V18.6548C1.85409 18.6548 1.33325 18.1338 1.33325 17.4892H0.333252ZM2.49992 19.6548H9.16658V18.6548H2.49992V19.6548ZM11.6666 11.3334H13.3333V10.3334H11.6666V11.3334ZM6.66658 11.3334H8.33325V10.3334H6.66658V11.3334ZM16.6666 11.3334H18.3333V10.3334H16.6666V11.3334Z" fill="#1D1929"/>
</svg>
