<svg width="30" height="31" viewBox="0 0 30 31" fill="none" xmlns="http://www.w3.org/2000/svg">
<rect x="0.225586" y="0.548828" width="29.5405" height="29.5405" rx="8" fill="#F7F7FF"/>
<path d="M15.8573 21.013V9.62393C15.8573 9.14796 15.4715 8.76211 14.9955 8.76211C14.5195 8.76211 14.1337 9.14796 14.1337 9.62393V21.013C14.1337 21.489 14.5195 21.8748 14.9955 21.8748C15.4715 21.8748 15.8573 21.489 15.8573 21.013Z" fill="#00CFC5" stroke="#00CFC5" stroke-width="0.3" stroke-linecap="round"/>
<path d="M20.69 14.4574H9.30093C8.82496 14.4574 8.43911 14.8433 8.43911 15.3192C8.43911 15.7952 8.82496 16.1811 9.30093 16.1811H20.69C21.166 16.1811 21.5518 15.7952 21.5518 15.3192C21.5518 14.8433 21.166 14.4574 20.69 14.4574Z" fill="#00CFC5" stroke="#00CFC5" stroke-width="0.3" stroke-linecap="round"/>
</svg>
