<svg width="22" height="22" viewBox="0 0 22 22" fill="none" xmlns="http://www.w3.org/2000/svg">
<path d="M18.5136 9.60631C19.3117 9.49427 20.0616 10.0527 20.0482 10.8585C20.0206 12.5139 19.5534 14.1419 18.6821 15.5702C17.556 17.4162 15.8247 18.8147 13.7831 19.5273C11.7416 20.2399 9.51606 20.2226 7.48582 19.4783C5.45558 18.734 3.74622 17.3088 2.649 15.4455C1.55178 13.5821 1.13459 11.396 1.4685 9.25959C1.80242 7.12316 2.86678 5.1686 4.48024 3.72894C6.0937 2.28929 8.15643 1.45362 10.317 1.36432C11.9886 1.29523 13.6389 1.67628 15.0999 2.45517C15.8111 2.8343 15.9356 3.76093 15.4505 4.40449C14.9654 5.04805 14.0538 5.1584 13.3176 4.8306C12.4187 4.43036 11.4336 4.23913 10.4375 4.2803C8.95158 4.34171 7.53294 4.91644 6.42328 5.90656C5.31363 6.89668 4.58161 8.24093 4.35196 9.71026C4.12231 11.1796 4.40923 12.6831 5.16385 13.9646C5.91846 15.2461 7.09407 16.2263 8.49036 16.7382C9.88666 17.2501 11.4173 17.262 12.8213 16.7719C14.2254 16.2818 15.4162 15.32 16.1906 14.0504C16.7098 13.1993 17.0204 12.2451 17.1064 11.2648C17.1769 10.462 17.7156 9.71836 18.5136 9.60631Z" fill="#00CFC5"/>
<path d="M8.32129 9.5L11.7493 12.9278C11.7889 12.9674 11.8533 12.9668 11.8921 12.9264L19.5 5" stroke="#1D1929" stroke-width="3" stroke-linecap="round"/>
</svg>
