<svg width="20" height="20" viewBox="0 0 20 20" fill="none" xmlns="http://www.w3.org/2000/svg">
<path fill-rule="evenodd" clip-rule="evenodd" d="M20 8.46154C20 8.20677 19.776 8 19.5 8H10.5C10.224 8 10 8.20677 10 8.46154V19.5385C10 19.7932 10.224 20 10.5 20H19.5C19.776 20 20 19.7932 20 19.5385V8.46154ZM19 8.92308V19.0769H11V8.92308H19Z" fill="#AFAFAF"/>
<path fill-rule="evenodd" clip-rule="evenodd" d="M11 0.47619C11 0.213333 10.7947 0 10.5417 0H0.458333C0.205333 0 0 0.213333 0 0.47619V19.5238C0 19.7867 0.205333 20 0.458333 20H10.5417C10.7947 20 11 19.7867 11 19.5238V0.47619ZM10.0833 0.952381V19.0476H0.916667V0.952381H10.0833Z" fill="#AFAFAF"/>
<path fill-rule="evenodd" clip-rule="evenodd" d="M8 6V4H7V6H8Z" fill="#AFAFAF"/>
<path fill-rule="evenodd" clip-rule="evenodd" d="M8 10V9H7V10H8Z" fill="#AFAFAF"/>
<path fill-rule="evenodd" clip-rule="evenodd" d="M8 14V13H7V14H8Z" fill="#AFAFAF"/>
<path fill-rule="evenodd" clip-rule="evenodd" d="M4 6V4H3V6H4Z" fill="#AFAFAF"/>
<path fill-rule="evenodd" clip-rule="evenodd" d="M4 10V9H3V10H4Z" fill="#AFAFAF"/>
<path fill-rule="evenodd" clip-rule="evenodd" d="M4 14V13H3V14H4Z" fill="#AFAFAF"/>
<path fill-rule="evenodd" clip-rule="evenodd" d="M17 13V11H16V13H17Z" fill="#AFAFAF"/>
<path fill-rule="evenodd" clip-rule="evenodd" d="M17 17V15H16V17H17Z" fill="#AFAFAF"/>
<path fill-rule="evenodd" clip-rule="evenodd" d="M14 13V11H13V13H14Z" fill="#AFAFAF"/>
<path fill-rule="evenodd" clip-rule="evenodd" d="M14 17V15H13V17H14Z" fill="#AFAFAF"/>
</svg>
