<svg width="33" height="38" viewBox="0 0 33 38" fill="none" xmlns="http://www.w3.org/2000/svg">
<path fill-rule="evenodd" clip-rule="evenodd" d="M6.17647 1.80952C3.73941 1.80952 1.76471 3.83438 1.76471 6.33333V31.6667C1.76471 34.1656 3.73941 36.1905 6.17647 36.1905H19V38H6.17647C2.76529 38 0 35.1645 0 31.6667V6.33333C0 2.83552 2.76529 0 6.17647 0H23.8235C27.2347 0 30 2.83552 30 6.33333V27H28.2353V6.33333C28.2353 3.83438 26.2606 1.80952 23.8235 1.80952H6.17647Z" fill="#00CFC5"/>
<path fill-rule="evenodd" clip-rule="evenodd" d="M23 11H8V9H23V11Z" fill="#00CFC5"/>
<path fill-rule="evenodd" clip-rule="evenodd" d="M23 20H8V18H23V20Z" fill="#00CFC5"/>
<path fill-rule="evenodd" clip-rule="evenodd" d="M19 29H8V27H19V29Z" fill="#00CFC5"/>
<path fill-rule="evenodd" clip-rule="evenodd" d="M31.7586 30.2781L25.4355 36.4818C25.0223 36.8852 24.328 36.9167 23.88 36.5525L19.3071 32.8157L20.7993 31.3516L24.5629 34.4289L30.1398 28.9553L31.7586 30.2781Z" fill="#00CFC5"/>
</svg>
