<svg width="56" height="38" viewBox="0 0 56 38" fill="none" xmlns="http://www.w3.org/2000/svg">
<path d="M3.7 20.9667L2.91065 20.3527C2.60102 20.7508 2.63628 21.3172 2.99289 21.6738L3.7 20.9667ZM16.0333 3.7L15.3262 4.4071L15.3262 4.4071L16.0333 3.7ZM20.9667 8.63333L21.6738 9.34044L22.3809 8.63333L21.6738 7.92622L20.9667 8.63333ZM16.0333 13.5667L15.3262 14.2738L16.0333 14.9809L16.7404 14.2738L16.0333 13.5667ZM11.1 8.63333L10.3929 9.34044L10.3929 9.34044L11.1 8.63333ZM18.8364 10.7636L19.5435 11.4707L19.5435 11.4707L18.8364 10.7636ZM18.1636 11.4364L17.4565 10.7292L17.4565 10.7293L18.1636 11.4364ZM18.8364 25.5636L18.1293 24.8565L18.1293 24.8565L18.8364 25.5636ZM32.9636 11.4364L32.2565 10.7293L32.2565 10.7293L32.9636 11.4364ZM32.9636 10.7636L32.2565 11.4707L32.2565 11.4707L32.9636 10.7636ZM18.1636 25.5636L18.8707 24.8565L18.8707 24.8565L18.1636 25.5636ZM4.93333 36.7667H32.0667V34.7667H4.93333V36.7667ZM19.2071 35.0596L4.40711 20.2596L2.99289 21.6738L17.7929 36.4738L19.2071 35.0596ZM4.48935 21.5806L13.1227 10.4806L11.544 9.25272L2.91065 20.3527L4.48935 21.5806ZM15.3262 4.4071L20.2596 9.34044L21.6738 7.92622L16.7404 2.99289L15.3262 4.4071ZM20.2596 7.92622L15.3262 12.8596L16.7404 14.2738L21.6738 9.34044L20.2596 7.92622ZM16.7404 12.8596L11.8071 7.92622L10.3929 9.34044L15.3262 14.2738L16.7404 12.8596ZM11.8071 4.4071C12.7789 3.43532 14.3544 3.43532 15.3262 4.4071L16.7404 2.99289C14.9876 1.24006 12.1457 1.24006 10.3929 2.99289L11.8071 4.4071ZM10.3929 2.99289C8.64007 4.74572 8.64007 7.58761 10.3929 9.34044L11.8071 7.92622C10.8353 6.95444 10.8353 5.37888 11.8071 4.4071L10.3929 2.99289ZM18.1293 10.0565L17.4565 10.7292L18.8707 12.1435L19.5435 11.4707L18.1293 10.0565ZM19.5435 26.2707L33.6707 12.1435L32.2565 10.7293L18.1293 24.8565L19.5435 26.2707ZM33.6707 12.1435C34.247 11.5672 34.247 10.6328 33.6707 10.0565L32.2565 11.4707C32.0518 11.266 32.0518 10.934 32.2565 10.7293L33.6707 12.1435ZM17.4565 26.2707C18.0328 26.847 18.9672 26.847 19.5435 26.2707L18.1293 24.8565C18.334 24.6518 18.666 24.6518 18.8707 24.8565L17.4565 26.2707ZM17.4565 10.7293C13.1649 15.0209 13.1649 21.9791 17.4565 26.2707L18.8707 24.8565C15.3601 21.3459 15.3601 15.6541 18.8707 12.1435L17.4565 10.7293ZM19.5435 11.4707C23.0541 7.96012 28.7459 7.96013 32.2565 11.4707L33.6707 10.0565C29.3791 5.76486 22.4209 5.76486 18.1293 10.0565L19.5435 11.4707Z" fill="#00CFC5"/>
<path d="M37 36.1H56M38.9 22.1667L38.9 32.3C38.9 32.9996 39.4671 33.5667 40.1667 33.5667H52.8333C53.5329 33.5667 54.1 32.9996 54.1 32.3V22.1667C54.1 21.4671 53.5329 20.9 52.8333 20.9L40.1667 20.9C39.4671 20.9 38.9 21.4671 38.9 22.1667Z" stroke="#00CFC5" stroke-width="1.5"/>
</svg>
