<svg width="46" height="42" viewBox="0 0 46 42" fill="none" xmlns="http://www.w3.org/2000/svg">
<path fill-rule="evenodd" clip-rule="evenodd" d="M13 5.625C13 2.51775 15.4867 0 18.5556 0H27.4444C30.5133 0 33 2.51775 33 5.625V7.875C33 8.496 32.5022 9 31.8889 9H14.1111C13.4978 9 13 8.496 13 7.875V5.625ZM18.5556 2.25C16.7156 2.25 15.2222 3.762 15.2222 5.625V6.75H30.7778V5.625C30.7778 3.762 29.2844 2.25 27.4444 2.25H18.5556Z" fill="#00CFC5"/>
<path fill-rule="evenodd" clip-rule="evenodd" d="M0 12.4688C0 9.44781 2.45114 7 5.47619 7H40.5238C43.5489 7 46 9.44781 46 12.4688V36.5312C46 39.5522 43.5489 42 40.5238 42H5.47619C2.45114 42 0 39.5522 0 36.5312V12.4688ZM5.47619 9.1875C3.66248 9.1875 2.19048 10.6575 2.19048 12.4688V36.5312C2.19048 38.3425 3.66248 39.8125 5.47619 39.8125H40.5238C42.3375 39.8125 43.8095 38.3425 43.8095 36.5312V12.4688C43.8095 10.6575 42.3375 9.1875 40.5238 9.1875H5.47619Z" fill="#00CFC5"/>
<path fill-rule="evenodd" clip-rule="evenodd" d="M0 12.3125C0 9.37787 2.45114 7 5.47619 7H40.5238C43.5489 7 46 9.37787 46 12.3125V22.9375C46 23.524 45.5093 24 44.9048 24H29.5714C28.9669 24 28.4762 23.524 28.4762 22.9375C28.4762 22.351 28.9669 21.875 29.5714 21.875H43.8095V12.3125C43.8095 10.553 42.3375 9.125 40.5238 9.125H5.47619C3.66248 9.125 2.19048 10.553 2.19048 12.3125V21.875H16.4286C17.0331 21.875 17.5238 22.351 17.5238 22.9375C17.5238 23.524 17.0331 24 16.4286 24H1.09524C0.490667 24 0 23.524 0 22.9375V12.3125Z" fill="#00CFC5"/>
<path fill-rule="evenodd" clip-rule="evenodd" d="M16.1133 24.4783C15.4045 21.1265 18.1118 18 21.7176 18H24.2807C27.8888 18 30.5938 21.1265 29.8873 24.4783L28.6937 30.129C28.5862 30.636 28.1175 31 27.5733 31H18.4273C17.8808 31 17.412 30.636 17.3045 30.129L16.1133 24.4783ZM21.7176 20.1667C19.5546 20.1667 17.9312 22.043 18.3542 24.0537L19.3647 28.8333H26.6359L27.6442 24.0537C28.0695 22.043 26.4461 20.1667 24.2807 20.1667H21.7176Z" fill="#00CFC5"/>
</svg>
