<svg width="39" height="40" viewBox="0 0 39 40" fill="none" xmlns="http://www.w3.org/2000/svg">
<path d="M6.64197 11.5248L17.4132 5.08051L16.3864 3.36423L5.61514 9.80857L6.64197 11.5248ZM4.8998 25.3334V14.6667H2.8998V25.3334H4.8998ZM21.5864 5.08051L32.3576 11.5248L33.3845 9.80857L22.6132 3.36423L21.5864 5.08051ZM34.0998 14.6667V25.3334H36.0998V14.6667H34.0998ZM33.2864 27.9198L21.5864 34.9198L22.6132 36.6361L34.3132 29.6361L33.2864 27.9198ZM17.4132 34.9198L6.64197 28.4755L5.61514 30.1917L16.3864 36.6361L17.4132 34.9198ZM17.3614 5.45505L4.36136 25.4551L6.03825 26.545L19.0382 6.54503L17.3614 5.45505ZM34.6382 25.4551L21.6382 5.45505L19.9614 6.54503L32.9614 26.545L34.6382 25.4551ZM6.4998 29H32.4998V27H6.4998V29ZM19.4998 5.66671C18.6399 5.66671 17.8998 4.94453 17.8998 4.00004H15.8998C15.8998 6.00107 17.4879 7.66671 19.4998 7.66671V5.66671ZM21.0998 4.00004C21.0998 4.94453 20.3597 5.66671 19.4998 5.66671V7.66671C21.5117 7.66671 23.0998 6.00107 23.0998 4.00004H21.0998ZM19.4998 2.33337C20.3597 2.33337 21.0998 3.05555 21.0998 4.00004H23.0998C23.0998 1.99901 21.5117 0.333374 19.4998 0.333374V2.33337ZM19.4998 0.333374C17.4879 0.333374 15.8998 1.99901 15.8998 4.00004H17.8998C17.8998 3.05555 18.6399 2.33337 19.4998 2.33337V0.333374ZM35.0998 13.6667C34.2399 13.6667 33.4998 12.9445 33.4998 12H31.4998C31.4998 14.0011 33.0879 15.6667 35.0998 15.6667V13.6667ZM36.6998 12C36.6998 12.9445 35.9597 13.6667 35.0998 13.6667V15.6667C37.1117 15.6667 38.6998 14.0011 38.6998 12H36.6998ZM35.0998 10.3334C35.9597 10.3334 36.6998 11.0555 36.6998 12H38.6998C38.6998 9.99901 37.1117 8.33337 35.0998 8.33337V10.3334ZM35.0998 8.33337C33.0879 8.33337 31.4998 9.99901 31.4998 12H33.4998C33.4998 11.0555 34.2399 10.3334 35.0998 10.3334V8.33337ZM35.0998 29.6667C34.2399 29.6667 33.4998 28.9445 33.4998 28H31.4998C31.4998 30.0011 33.0879 31.6667 35.0998 31.6667V29.6667ZM36.6998 28C36.6998 28.9445 35.9597 29.6667 35.0998 29.6667V31.6667C37.1117 31.6667 38.6998 30.0011 38.6998 28H36.6998ZM35.0998 26.3334C35.9597 26.3334 36.6998 27.0555 36.6998 28H38.6998C38.6998 25.999 37.1117 24.3334 35.0998 24.3334V26.3334ZM35.0998 24.3334C33.0879 24.3334 31.4998 25.999 31.4998 28H33.4998C33.4998 27.0555 34.2399 26.3334 35.0998 26.3334V24.3334ZM19.4998 37.6667C18.6399 37.6667 17.8998 36.9445 17.8998 36H15.8998C15.8998 38.0011 17.4879 39.6667 19.4998 39.6667V37.6667ZM21.0998 36C21.0998 36.9445 20.3597 37.6667 19.4998 37.6667V39.6667C21.5117 39.6667 23.0998 38.0011 23.0998 36H21.0998ZM19.4998 34.3334C20.3597 34.3334 21.0998 35.0555 21.0998 36H23.0998C23.0998 33.999 21.5117 32.3334 19.4998 32.3334V34.3334ZM19.4998 32.3334C17.4879 32.3334 15.8998 33.999 15.8998 36H17.8998C17.8998 35.0555 18.6399 34.3334 19.4998 34.3334V32.3334ZM3.8998 29.6667C3.03986 29.6667 2.2998 28.9445 2.2998 28H0.299805C0.299805 30.0011 1.88786 31.6667 3.8998 31.6667V29.6667ZM5.4998 28C5.4998 28.9445 4.75974 29.6667 3.8998 29.6667V31.6667C5.91175 31.6667 7.4998 30.0011 7.4998 28H5.4998ZM3.8998 26.3334C4.75974 26.3334 5.4998 27.0555 5.4998 28H7.4998C7.4998 25.999 5.91175 24.3334 3.8998 24.3334V26.3334ZM3.8998 24.3334C1.88786 24.3334 0.299805 25.999 0.299805 28H2.2998C2.2998 27.0555 3.03986 26.3334 3.8998 26.3334V24.3334ZM3.8998 13.6667C3.03986 13.6667 2.2998 12.9445 2.2998 12H0.299805C0.299805 14.0011 1.88786 15.6667 3.8998 15.6667V13.6667ZM5.4998 12C5.4998 12.9445 4.75974 13.6667 3.8998 13.6667V15.6667C5.91175 15.6667 7.4998 14.0011 7.4998 12H5.4998ZM3.8998 10.3334C4.75974 10.3334 5.4998 11.0555 5.4998 12H7.4998C7.4998 9.99901 5.91175 8.33337 3.8998 8.33337V10.3334ZM3.8998 8.33337C1.88786 8.33337 0.299805 9.99901 0.299805 12H2.2998C2.2998 11.0555 3.03986 10.3334 3.8998 10.3334V8.33337Z" fill="#00CFC5"/>
</svg>
