<svg width="41" height="41" viewBox="0 0 41 41" fill="none" xmlns="http://www.w3.org/2000/svg">
<path d="M1.3667 20.5L0.659592 19.7929C0.269068 20.1835 0.269068 20.8166 0.659592 21.2071L1.3667 20.5ZM20.5 39.6334L19.7929 40.3405C20.1835 40.731 20.8166 40.731 21.2071 40.3405L20.5 39.6334ZM39.6334 20.5L40.3405 21.2071C40.528 21.0196 40.6334 20.7653 40.6334 20.5H39.6334ZM20.5 1.3667V0.366699C20.2348 0.366699 19.9805 0.472056 19.7929 0.659592L20.5 1.3667ZM0.659592 21.2071L19.7929 40.3405L21.2071 38.9263L2.07381 19.7929L0.659592 21.2071ZM21.2071 40.3405L40.3405 21.2071L38.9263 19.7929L19.7929 38.9263L21.2071 40.3405ZM40.6334 20.5V4.10003H38.6334V20.5H40.6334ZM36.9 0.366699H20.5V2.3667H36.9V0.366699ZM19.7929 0.659592L0.659592 19.7929L2.07381 21.2071L21.2071 2.07381L19.7929 0.659592ZM40.6334 4.10003C40.6334 2.03817 38.9619 0.366699 36.9 0.366699V2.3667C37.8573 2.3667 38.6334 3.14274 38.6334 4.10003H40.6334ZM28.7 14.0334C27.7427 14.0334 26.9667 13.2573 26.9667 12.3H24.9667C24.9667 14.3619 26.6382 16.0334 28.7 16.0334V14.0334ZM30.4334 12.3C30.4334 13.2573 29.6573 14.0334 28.7 14.0334V16.0334C30.7619 16.0334 32.4334 14.3619 32.4334 12.3H30.4334ZM28.7 10.5667C29.6573 10.5667 30.4334 11.3427 30.4334 12.3H32.4334C32.4334 10.2382 30.7619 8.5667 28.7 8.5667V10.5667ZM28.7 8.5667C26.6382 8.5667 24.9667 10.2382 24.9667 12.3H26.9667C26.9667 11.3427 27.7427 10.5667 28.7 10.5667V8.5667Z" fill="#00CFC5"/>
</svg>
