<svg width="37" height="37" viewBox="0 0 37 37" fill="none" xmlns="http://www.w3.org/2000/svg">
<path d="M30.8334 30.8334C33.558 30.8334 35.7667 28.6247 35.7667 25.9001V20.9667C35.7667 18.2421 33.558 16.0334 30.8334 16.0334C29.4711 16.0334 28.3667 17.1378 28.3667 18.5001V28.3667C28.3667 29.729 29.4711 30.8334 30.8334 30.8334ZM30.8334 30.8334C30.8334 33.558 28.6247 35.7667 25.9001 35.7667H19.7334M35.7667 24.6667V18.5001C35.7667 8.96395 28.0362 1.2334 18.5001 1.2334C8.96395 1.2334 1.2334 8.96395 1.2334 18.5001V24.6667M6.16673 30.8334C7.52903 30.8334 8.6334 29.729 8.6334 28.3667V18.5001C8.6334 17.1378 7.52903 16.0334 6.16673 16.0334C3.44213 16.0334 1.2334 18.2421 1.2334 20.9667V25.9001C1.2334 28.6247 3.44213 30.8334 6.16673 30.8334Z" stroke="#00CFC5" stroke-width="2"/>
</svg>
