<svg width="40" height="37" viewBox="0 0 40 37" fill="none" xmlns="http://www.w3.org/2000/svg">
<path d="M31.5714 35.6H38V31.7429C38 28.1925 35.1218 25.3143 31.5714 25.3143M22.5714 9.70926C22.5714 13.9673 19.118 17.4185 14.8571 17.4185C10.5963 17.4185 7.14286 13.9673 7.14286 9.70926C7.14286 5.45118 10.5963 2 14.8571 2C19.118 2 22.5714 5.45118 22.5714 9.70926ZM27.7143 35.5765H2C2 33.7507 2 32.0137 2 30.4408C2 26.1803 5.4538 22.7278 9.71429 22.7278H20C24.2605 22.7278 27.7143 26.1803 27.7143 30.4408C27.7143 32.0137 27.7143 33.7507 27.7143 35.5765ZM30.2857 20.1714C27.4454 20.1714 25.1429 17.8689 25.1429 15.0286C25.1429 12.1882 27.4454 9.88571 30.2857 9.88571C33.126 9.88571 35.4286 12.1882 35.4286 15.0286C35.4286 17.8689 33.126 20.1714 30.2857 20.1714Z" stroke="#00CFC5" stroke-width="2.4"/>
</svg>
