<?xml version="1.0" encoding="utf-8"?>
<svg width="15" height="15"  version="1.1" id="Layer_1" xmlns="http://www.w3.org/2000/svg" xmlns:xlink="http://www.w3.org/1999/xlink" x="0px" y="0px"
	 viewBox="0 0 64 64" enable-background="new 0 0 64 64" xml:space="preserve">

<g id="Catalogue-cant" >
	<path d="M13.9978352,5.75h-10.5c-1.933,0-3.5,1.5669999-3.5,3.5v45.5c0,1.9329987,1.5669999,3.5,3.5,3.5h10.5
		c1.9328995,0,3.5-1.5670013,3.5-3.5V9.25C17.4978352,7.3169999,15.9307346,5.75,13.9978352,5.75z M3.4978354,7.75h10.5
		c0.8269997,0,1.5,0.6729002,1.5,1.5v11.1028004h-13.5V9.25C1.9978354,8.4229002,2.6707354,7.75,3.4978354,7.75z M13.9978352,56.25
		h-10.5c-0.8271,0-1.5-0.6729012-1.5-1.5V22.3528004h13.5V54.75C15.4978352,55.5770988,14.8248348,56.25,13.9978352,56.25z"/>
	<path d="M8.7478352,44.25c-1.9329996,0-3.5,1.5670013-3.5,3.5s1.5670004,3.5,3.5,3.5c1.9329004,0,3.5-1.5670013,3.5-3.5
		S10.6807356,44.25,8.7478352,44.25z M8.7478352,49.25c-0.8270998,0-1.5-0.6729012-1.5-1.5s0.6729002-1.5,1.5-1.5
		c0.8269997,0,1.5,0.6729012,1.5,1.5S9.5748348,49.25,8.7478352,49.25z"/>
	<path d="M63.9445343,52.8067017L55.765934,8.0478001c-0.3084984-1.6887999-1.781292-2.8716002-3.4389992-2.8716002
		c-0.2088013,0-0.4202957,0.0188003-0.6329994,0.0577002l-10.3290024,1.8873
		c-1.9015999,0.3474998-3.161293,2.1705995-2.8139,4.0721002L46.729641,55.952301
		c0.3084946,1.6888008,1.7811928,2.8714981,3.4388924,2.8714981c0.2088013,0,0.4204025-0.0187988,0.6331062-0.0576973
		l10.3290024-1.8873024C63.0322342,56.5312996,64.2920303,54.7081985,63.9445343,52.8067017z M41.7244339,9.0887003
		l10.3288994-1.8874002c0.0909004-0.0166001,0.1830025-0.0251002,0.2736015-0.0251002
		c0.7224007,0,1.341301,0.5177002,1.4715996,1.2311001l1.9958,10.9219007l-13.2801018,2.426899l-1.9958-10.9222994
		C40.3698349,10.0201998,40.9108353,9.2372999,41.7244339,9.0887003z M60.7712326,54.9113998L50.442234,56.7986984
		c-0.0909996,0.0166016-0.1831017,0.0251007-0.2737007,0.0251007c-0.7222977,0-1.341198-0.5177002-1.4715004-1.230999
		l-5.823391-31.8698997l13.2799988-2.4269009l5.823494,31.8701992
		C62.1257324,53.9798012,61.5848351,54.7626991,60.7712326,54.9113998z"/>
	<path d="M54.0828323,43.9929008c-0.2085991,0-0.4204979,0.0186996-0.6330986,0.0575981
		c-1.9015007,0.3474998-3.1613998,2.1706009-2.8139,4.0721016c0.3086014,1.6889,1.7811012,2.8714981,3.4389992,2.8714981
		c0.2087021,0,0.4205017-0.0186996,0.6331024-0.0575981c1.9014969-0.3474998,3.1613998-2.1706009,2.8139-4.0721016
		C57.2132339,45.175499,55.7407341,43.9928017,54.0828323,43.9929008z M54.3484344,48.969101
		c-0.0909004,0.0165977-0.1829987,0.0249977-0.2736015,0.0249977c-0.7224007,0-1.3411942-0.5177002-1.4715996-1.230999
		c-0.1487007-0.8135986,0.3924065-1.5965004,1.2060013-1.7452011c0.0909004-0.0165977,0.1829987-0.0249977,0.2738991-0.0249977
		c0.7222023,0,1.3409004,0.5177002,1.471199,1.2308998C55.7030334,48.0374985,55.1621323,48.8204002,54.3484344,48.969101z"/>
	<path d="M33.2478333,5.75H22.7478352c-1.9330006,0-3.5,1.5669999-3.5,3.5v45.5c0,1.9329987,1.5669994,3.5,3.5,3.5h10.4999981
		c1.9328995,0,3.5-1.5670013,3.5-3.5V9.25C36.7478333,7.3169999,35.1807327,5.75,33.2478333,5.75z M22.7478352,7.75h10.4999981
		c0.8269997,0,1.5,0.6729002,1.5,1.5v11.1028004H21.2478352V9.25C21.2478352,8.4229002,21.9207344,7.75,22.7478352,7.75z
		 M33.2478333,56.25H22.7478352c-0.8271008,0-1.5-0.6729012-1.5-1.5V22.3528004h13.4999981V54.75
		C34.7478333,55.5770988,34.0748329,56.25,33.2478333,56.25z"/>
	<path d="M27.9978352,44.25c-1.9330006,0-3.5,1.5670013-3.5,3.5s1.5669994,3.5,3.5,3.5c1.9328995,0,3.5-1.5670013,3.5-3.5
		S29.9307346,44.25,27.9978352,44.25z M27.9978352,49.25c-0.8271008,0-1.5-0.6729012-1.5-1.5s0.6728992-1.5,1.5-1.5
		c0.8269997,0,1.5,0.6729012,1.5,1.5S28.8248348,49.25,27.9978352,49.25z"/>
</g>
</svg>
