<svg width="16" height="17" viewBox="0 0 16 17" fill="none" xmlns="http://www.w3.org/2000/svg">
<path fill-rule="evenodd" clip-rule="evenodd" d="M10.826 0.120438C10.9874 -0.0401461 11.2476 -0.0401461 11.409 0.120438L13.8796 2.59097C14.0401 2.75238 14.0401 3.01261 13.8796 3.17402L3.99744 13.0561C3.94391 13.1088 3.87804 13.1459 3.80557 13.164L0.511529 13.9875C0.371532 14.0229 0.223302 13.9818 0.120363 13.8797C0.0182477 13.7767 -0.0229313 13.6285 0.0124796 13.4885L0.835989 10.1944C0.854106 10.122 0.891168 10.0561 0.943873 10.0026L10.826 0.120438ZM1.60679 10.5049L0.97763 13.0224L3.49511 12.3932L13.0058 2.88249L11.1175 0.994186L1.60679 10.5049Z" fill="#00CFC5"/>
<path fill-rule="evenodd" clip-rule="evenodd" d="M16 17H0V16H16V17Z" fill="#00CFC5"/>
</svg>
