<svg width="13" height="16" viewBox="0 0 13 16" fill="inherit" xmlns="http://www.w3.org/2000/svg">
<path d="M2.83333 6.75H10.1667V5.75H2.83333V6.75ZM11.5 8V13.25H12.5V8H11.5ZM10.1667 14.5H2.83333V15.5H10.1667V14.5ZM1.5 13.25V8H0.5V13.25H1.5ZM2.83333 14.5C2.07478 14.5 1.5 13.9187 1.5 13.25H0.5C0.5 14.5143 1.56684 15.5 2.83333 15.5V14.5ZM11.5 13.25C11.5 13.9187 10.9252 14.5 10.1667 14.5V15.5C11.4332 15.5 12.5 14.5143 12.5 13.25H11.5ZM10.1667 6.75C10.9252 6.75 11.5 7.33131 11.5 8H12.5C12.5 6.73569 11.4332 5.75 10.1667 5.75V6.75ZM2.83333 5.75C1.56684 5.75 0.5 6.73569 0.5 8H1.5C1.5 7.33131 2.07478 6.75 2.83333 6.75V5.75ZM3.33333 6.25V4.5H2.33333V6.25H3.33333ZM9.66667 4.5V6.25H10.6667V4.5H9.66667ZM6.5 1.5C8.27108 1.5 9.66667 2.86481 9.66667 4.5H10.6667C10.6667 2.2692 8.77901 0.5 6.5 0.5V1.5ZM3.33333 4.5C3.33333 2.86481 4.72892 1.5 6.5 1.5V0.5C4.22099 0.5 2.33333 2.2692 2.33333 4.5H3.33333Z" fill="currentColor"/>
</svg>
