<svg width="78" height="52" viewBox="0 0 78 52" fill="none" xmlns="http://www.w3.org/2000/svg">
<path fill-rule="evenodd" clip-rule="evenodd" d="M37.1807 33.5692C37.9111 32.8103 39.0889 32.8103 39.8193 33.5692L51 45.2446L48.3613 48L38.5 37.6984L28.6387 48L26 45.2446L37.1807 33.5692Z" fill="#00CFC5"/>
<path fill-rule="evenodd" clip-rule="evenodd" d="M35.516 3.71429C24.4326 3.71429 15.3214 13.0817 15.3214 24.7928C15.3214 25.168 15.3325 25.5394 15.3474 25.9072C15.3734 26.416 15.1914 26.91 14.8386 27.2814C14.4894 27.6491 14.0028 27.8571 13.494 27.8571H13.4643C8.14914 27.8571 3.71429 32.3626 3.71429 38.0714C3.71429 43.7803 8.14914 48.2857 13.4643 48.2857H20.4286V52H13.4643C5.96143 52 0 45.6931 0 38.0714C0 31.0886 5.00317 25.2089 11.6109 24.2729C11.8783 10.8866 22.412 0 35.516 0C44.3375 0 52.0074 4.94373 56.1489 12.2497C56.992 12.1309 57.8575 12.0714 58.7303 12.0714C69.4423 12.0714 78 21.0786 78 32.0357C78 40.5414 72.8594 47.8438 65.5571 50.7112C63.8337 51.5395 61.9134 52 59.8929 52H57.5714V48.2857H59.8929C61.3637 48.2857 62.7528 47.9477 64.0008 47.3386C64.0454 47.3163 64.0938 47.294 64.142 47.2754C70.0329 44.9911 74.2857 39.0557 74.2857 32.0357C74.2857 22.9914 67.2546 15.7857 58.7303 15.7857C57.6346 15.7857 56.5648 15.9046 55.536 16.1275C54.704 16.3095 53.8534 15.9008 53.4746 15.1394C50.1057 8.32367 43.3049 3.71429 35.516 3.71429Z" fill="#00CFC5"/>
</svg>
