<svg width="17" height="16" viewBox="0 0 17 16" fill="none" xmlns="http://www.w3.org/2000/svg">
<path fill-rule="evenodd" clip-rule="evenodd" d="M6.92168 0.941176C6.41347 0.941176 5.94912 1.24329 5.72096 1.72141L5.36842 2.464C4.98995 3.26117 4.21511 3.76471 3.3678 3.76471H2.23684C1.496 3.76471 0.894737 4.39718 0.894737 5.17647V13.6471C0.894737 14.4264 1.496 15.0588 2.23684 15.0588H14.7632C15.504 15.0588 16.1053 14.4264 16.1053 13.6471V5.17647C16.1053 4.39718 15.504 3.76471 14.7632 3.76471H13.6322C12.7849 3.76471 12.0101 3.26117 11.6316 2.464L11.279 1.72141C11.0509 1.24329 10.5865 0.941176 10.0783 0.941176H6.92168ZM4.92105 1.30071C5.29953 0.503533 6.07436 0 6.92168 0H10.0783C10.9256 0 11.7005 0.503533 12.0789 1.30071L12.4315 2.0433C12.6596 2.52142 13.124 2.82353 13.6322 2.82353H14.7632C15.9988 2.82353 17 3.87671 17 5.17647V13.6471C17 14.9468 15.9988 16 14.7632 16H2.23684C1.00121 16 0 14.9468 0 13.6471V5.17647C0 3.87671 1.00121 2.82353 2.23684 2.82353H3.3678C3.87601 2.82353 4.34036 2.52142 4.56852 2.0433L4.92105 1.30071Z" fill="#00CFC5"/>
</svg>
