<svg width="52" height="58" viewBox="0 0 52 58" fill="none" xmlns="http://www.w3.org/2000/svg">
<path d="M6.35672 34.1631V25.872H36.0779V27.7271H38.2009V25.872C39.2322 25.8691 40.2271 25.4999 41 24.8332C41.7729 24.1665 42.2708 23.2479 42.4008 22.249C42.5308 21.2501 42.2839 20.2392 41.7064 19.4049C41.1289 18.5707 40.2601 17.9702 39.2623 17.7156C39.0719 14.225 37.6734 10.901 35.2957 8.28766C32.918 5.67434 29.7021 3.9266 26.1744 3.33057C25.7905 2.35076 25.1111 1.50778 24.226 0.913088C23.3409 0.318396 22.2918 0 21.2173 0C20.1429 0 19.0938 0.318396 18.2086 0.913088C17.3235 1.50778 16.6441 2.35076 16.2602 3.33057C12.7455 3.95432 9.54629 5.71029 7.17379 8.31791C4.8013 10.9255 3.39243 14.2343 3.1723 17.7156C2.17452 17.9702 1.30575 18.5707 0.728219 19.4049C0.150689 20.2392 -0.0961199 21.2501 0.0338766 22.249C0.163873 23.2479 0.661788 24.1665 1.43465 24.8332C2.20751 25.4999 3.20248 25.8691 4.23377 25.872V34.1631C4.23377 38.561 6.02311 42.7787 9.20814 45.8885C12.3932 48.9982 16.713 50.7453 21.2173 50.7453H22.2788V48.6725H21.2173C17.276 48.6725 13.4962 47.1438 10.7093 44.4228C7.92238 41.7018 6.35672 38.0112 6.35672 34.1631ZM15.91 5.50698V11.3626H18.0329V5.14425C18.0329 4.31965 18.3684 3.52882 18.9656 2.94574C19.5628 2.36266 20.3728 2.03509 21.2173 2.03509C22.0619 2.03509 22.8718 2.36266 23.469 2.94574C24.0662 3.52882 24.4017 4.31965 24.4017 5.14425V11.3626H26.5247V5.50698C28.6483 5.99102 30.6229 6.9629 32.2845 8.34185C33.946 9.72079 35.2465 11.467 36.0779 13.4353H28.6476V15.5081H36.7679C36.946 16.1887 37.0702 16.8817 37.1394 17.5809H5.29524C5.53371 14.7324 6.68888 12.0304 8.59545 9.86178C10.502 7.6931 13.0623 6.16881 15.91 5.50698ZM2.11083 21.7264C2.11083 21.1767 2.3345 20.6495 2.73263 20.2608C3.13075 19.8721 3.67073 19.6537 4.23377 19.6537H38.2009C38.7639 19.6537 39.3039 19.8721 39.702 20.2608C40.1001 20.6495 40.3238 21.1767 40.3238 21.7264C40.3238 22.2762 40.1001 22.8034 39.702 23.1921C39.3039 23.5808 38.7639 23.7992 38.2009 23.7992H4.23377C3.67073 23.7992 3.13075 23.5808 2.73263 23.1921C2.3345 22.8034 2.11083 22.2762 2.11083 21.7264ZM50.9385 39.345H47.3932L49.8771 36.8992C49.9765 36.8028 50.0555 36.6882 50.1094 36.5619C50.1633 36.4356 50.191 36.3001 50.191 36.1633C50.191 36.0265 50.1633 35.891 50.1094 35.7647C50.0555 35.6385 49.9765 35.5238 49.8771 35.4275L45.3976 31.0539C45.299 30.9568 45.1816 30.8797 45.0522 30.8271C44.9229 30.7745 44.7841 30.7474 44.644 30.7474C44.5039 30.7474 44.3651 30.7745 44.2358 30.8271C44.1064 30.8797 43.989 30.9568 43.8904 31.0539L41.3853 33.4791V30.0175C41.3853 29.7427 41.2734 29.4791 41.0744 29.2847C40.8753 29.0903 40.6053 28.9812 40.3238 28.9812H33.955C33.6735 28.9812 33.4035 29.0903 33.2044 29.2847C33.0053 29.4791 32.8935 29.7427 32.8935 30.0175V33.4791L30.3884 31.0539C30.2898 30.9568 30.1724 30.8797 30.043 30.8271C29.9137 30.7745 29.7749 30.7474 29.6348 30.7474C29.4947 30.7474 29.3559 30.7745 29.2266 30.8271C29.0972 30.8797 28.9798 30.9568 28.8811 31.0539L24.4017 35.4275C24.3022 35.5238 24.2233 35.6385 24.1694 35.7647C24.1155 35.891 24.0878 36.0265 24.0878 36.1633C24.0878 36.3001 24.1155 36.4356 24.1694 36.5619C24.2233 36.6882 24.3022 36.8028 24.4017 36.8992L26.8856 39.345H23.3403C23.0587 39.345 22.7888 39.4542 22.5897 39.6486C22.3906 39.8429 22.2788 40.1065 22.2788 40.3814V46.5997C22.2788 46.8746 22.3906 47.1382 22.5897 47.3326C22.7888 47.5269 23.0587 47.6361 23.3403 47.6361H26.8856L24.4017 50.082C24.3022 50.1783 24.2233 50.293 24.1694 50.4193C24.1155 50.5456 24.0878 50.681 24.0878 50.8178C24.0878 50.9547 24.1155 51.0901 24.1694 51.2164C24.2233 51.3427 24.3022 51.4573 24.4017 51.5537L28.8811 55.9272C28.9798 56.0244 29.0972 56.1015 29.2266 56.1541C29.3559 56.2067 29.4947 56.2338 29.6348 56.2338C29.7749 56.2338 29.9137 56.2067 30.043 56.1541C30.1724 56.1015 30.2898 56.0244 30.3884 55.9272L32.8935 53.5021V56.9636C32.8935 57.2385 33.0053 57.5021 33.2044 57.6964C33.4035 57.8908 33.6735 58 33.955 58H40.3238C40.6053 58 40.8753 57.8908 41.0744 57.6964C41.2734 57.5021 41.3853 57.2385 41.3853 56.9636V53.5021L43.8904 55.9272C43.989 56.0244 44.1064 56.1015 44.2358 56.1541C44.3651 56.2067 44.5039 56.2338 44.644 56.2338C44.7841 56.2338 44.9229 56.2067 45.0522 56.1541C45.1816 56.1015 45.299 56.0244 45.3976 55.9272L49.8771 51.5537C49.9765 51.4573 50.0555 51.3427 50.1094 51.2164C50.1633 51.0901 50.191 50.9547 50.191 50.8178C50.191 50.681 50.1633 50.5456 50.1094 50.4193C50.0555 50.293 49.9765 50.1783 49.8771 50.082L47.3932 47.6361H50.9385C51.22 47.6361 51.49 47.5269 51.6891 47.3326C51.8882 47.1382 52 46.8746 52 46.5997V40.3814C52 40.1065 51.8882 39.8429 51.6891 39.6486C51.49 39.4542 51.22 39.345 50.9385 39.345ZM49.8771 45.5634H46.1407C45.9194 45.562 45.7033 45.6283 45.5225 45.7528C45.3417 45.8773 45.2053 46.0538 45.1323 46.2577C45.0346 46.5298 44.9212 46.7962 44.7926 47.0557C44.6982 47.2499 44.6679 47.4678 44.7059 47.6795C44.7439 47.8912 44.8484 48.0861 45.0049 48.2372L47.648 50.8178L44.644 53.7508L42.0009 51.1702C41.8461 51.0174 41.6465 50.9154 41.4297 50.8783C41.2129 50.8411 40.9897 50.8707 40.7909 50.9629C40.5251 51.0885 40.2522 51.1992 39.9735 51.2946C39.7647 51.3659 39.5839 51.4991 39.4563 51.6756C39.3288 51.8521 39.261 52.0631 39.2623 52.2791V55.9272H35.0164V52.2791C35.0178 52.0631 34.9499 51.8521 34.8224 51.6756C34.6949 51.4991 34.5141 51.3659 34.3053 51.2946C34.0266 51.1992 33.7537 51.0885 33.4879 50.9629C33.2891 50.8707 33.0659 50.8411 32.8491 50.8783C32.6323 50.9154 32.4326 51.0174 32.2779 51.1702L29.6348 53.7508L26.6308 50.8178L29.2739 48.2372C29.4304 48.0861 29.5349 47.8912 29.5729 47.6795C29.6109 47.4678 29.5806 47.2499 29.4862 47.0557C29.3576 46.7962 29.2442 46.5298 29.1465 46.2577C29.0735 46.0538 28.9371 45.8773 28.7563 45.7528C28.5755 45.6283 28.3594 45.562 28.1381 45.5634H24.4017V41.4178H28.1381C28.3594 41.4191 28.5755 41.3529 28.7563 41.2284C28.9371 41.1039 29.0735 40.9273 29.1465 40.7234C29.2442 40.4514 29.3576 40.1849 29.4862 39.9254C29.5806 39.7313 29.6109 39.5133 29.5729 39.3016C29.5349 39.09 29.4304 38.8951 29.2739 38.7439L26.6308 36.1633L29.6348 33.2303L32.2779 35.8109C32.4326 35.9637 32.6323 36.0658 32.8491 36.1029C33.0659 36.14 33.2891 36.1104 33.4879 36.0182C33.7537 35.8927 34.0266 35.7819 34.3053 35.6866C34.5141 35.6153 34.6949 35.4821 34.8224 35.3056C34.9499 35.129 35.0178 34.918 35.0164 34.702V31.0539H39.2623V34.702C39.261 34.918 39.3288 35.129 39.4563 35.3056C39.5839 35.4821 39.7647 35.6153 39.9735 35.6866C40.2522 35.7819 40.5251 35.8927 40.7909 36.0182C40.9897 36.1104 41.2129 36.14 41.4297 36.1029C41.6465 36.0658 41.8461 35.9637 42.0009 35.8109L44.644 33.2303L47.648 36.1633L45.0049 38.7439C44.8484 38.8951 44.7439 39.09 44.7059 39.3016C44.6679 39.5133 44.6982 39.7313 44.7926 39.9254C44.9212 40.1849 45.0346 40.4514 45.1323 40.7234C45.2053 40.9273 45.3417 41.1039 45.5225 41.2284C45.7033 41.3529 45.9194 41.4191 46.1407 41.4178H49.8771V45.5634ZM37.1394 37.2723C35.8798 37.2723 34.6484 37.6369 33.6011 38.3202C32.5537 39.0035 31.7374 39.9747 31.2554 41.1109C30.7733 42.2472 30.6472 43.4975 30.8929 44.7037C31.1387 45.91 31.7453 47.018 32.636 47.8876C33.5266 48.7572 34.6615 49.3495 35.8969 49.5894C37.1323 49.8294 38.4129 49.7062 39.5766 49.2356C40.7404 48.7649 41.7351 47.9679 42.4349 46.9453C43.1347 45.9227 43.5082 44.7204 43.5082 43.4906C43.5082 41.8414 42.8372 40.2597 41.6428 39.0936C40.4484 37.9274 38.8285 37.2723 37.1394 37.2723ZM37.1394 47.6361C36.2996 47.6361 35.4787 47.393 34.7805 46.9375C34.0823 46.482 33.5381 45.8345 33.2167 45.077C32.8953 44.3195 32.8113 43.486 32.9751 42.6818C33.1389 41.8777 33.5433 41.139 34.1371 40.5592C34.7309 39.9795 35.4874 39.5846 36.3111 39.4247C37.1347 39.2647 37.9884 39.3468 38.7642 39.6606C39.5401 39.9744 40.2032 40.5057 40.6697 41.1874C41.1363 41.8692 41.3853 42.6707 41.3853 43.4906C41.3853 44.59 40.9379 45.6445 40.1417 46.4219C39.3454 47.1994 38.2655 47.6361 37.1394 47.6361ZM24.4017 13.4353H26.5247V15.5081H24.4017V13.4353Z" fill="#00CFC5"/>
</svg>
