<svg width="49" height="49" viewBox="0 0 49 49" fill="none" xmlns="http://www.w3.org/2000/svg">
<path d="M33.8675 0C30.1527 0 26.6389 1.44194 24.0101 3.99889C21.3757 1.44194 17.8602 0 14.1459 0C6.34253 0 0 6.34365 0 14.1465C0 30.9942 22.2334 47.6141 23.1797 48.3159L24.0101 48.9224L24.8338 48.3159C25.7806 47.6141 48.019 30.9942 48.019 14.1465C48.019 6.34365 41.6703 0 33.8675 0ZM7.01143 27.0271L5.34058 23.9828C5.29547 23.8769 5.2459 23.7761 5.20134 23.6815C4.9613 23.1802 4.73852 22.679 4.53245 22.1777C4.5163 22.1281 4.49346 22.0886 4.48232 22.0552C4.46617 22.0268 4.45559 21.9933 4.44947 21.9661H4.44389L4.43777 21.9493C3.4024 19.3762 2.78474 16.7469 2.78474 14.1465C2.78474 7.88082 7.88027 2.78474 14.1459 2.78474C17.5595 2.78474 20.7625 4.29909 22.9346 6.93958L24.0101 8.24897L25.085 6.93958C27.2509 4.29909 30.4534 2.78474 33.8675 2.78474C40.1387 2.78474 45.2343 7.88082 45.2343 14.1465C45.2343 15.873 44.9614 17.6107 44.4768 19.3317L44.4718 19.3367V19.3545C44.4668 19.3657 44.4612 19.3874 44.4495 19.4147C44.1209 20.5848 43.6865 21.7488 43.1802 22.9023L41.7879 25.687L41.1697 26.7558L41.7879 25.687C41.5874 26.0429 41.3807 26.3994 41.1697 26.7558C40.1894 28.4044 39.0805 30.0034 37.9048 31.5294C37.9048 31.535 37.8998 31.54 37.8948 31.545C32.6985 38.3125 26.2657 43.6542 24.0101 45.4364C21.4314 43.398 13.4214 36.7369 8.01338 28.5993C7.61293 27.9978 7.22307 27.3852 6.85548 26.7664" fill="#00CFC5"/>
<path fill-rule="evenodd" clip-rule="evenodd" d="M35.0358 12.6934C35.4011 12.6897 35.7218 12.9362 35.8131 13.2908L38.0878 22.1272L38.9145 15.877C38.9619 15.519 39.2436 15.2377 39.601 15.1918C39.9583 15.1458 40.3018 15.3466 40.4378 15.6811L41.9404 19.3762H45.7237C46.1625 19.3762 46.5182 19.7328 46.5182 20.1727C46.5182 20.6125 46.1625 20.9691 45.7237 20.9691H41.4063C41.0834 20.9691 40.7926 20.7731 40.6706 20.4733L40.0962 19.0608L39.1263 26.3939C39.0763 26.7718 38.7662 27.0612 38.3866 27.0842C38.0071 27.1072 37.6645 26.8573 37.5694 26.4882L35.0773 16.8071L33.9991 21.3755C33.9143 21.7348 33.5943 21.9885 33.226 21.9885H29.5535L28.0955 28.9449C28.0198 29.3057 27.707 29.5673 27.3393 29.5773C26.9717 29.5872 26.6453 29.3428 26.5504 28.9865L24.268 20.4158L23.6775 26.368C23.6429 26.7168 23.385 27.0018 23.0421 27.0703C22.6993 27.1387 22.352 26.9745 22.1868 26.6656L19.6847 21.9885H13.6841C13.3962 21.9885 13.1309 21.8324 12.9905 21.5805L12.4353 20.5842L11.4031 27.8736C11.3501 28.2477 11.0423 28.5329 10.6662 28.5566C10.2901 28.5802 9.94913 28.3357 9.84998 27.9712L7.06575 17.7357L6.05267 22.3816C5.97294 22.7473 5.64993 23.0079 5.27653 23.0079H1.8689V21.4151H4.63696L6.20462 14.2259C6.28274 13.8676 6.5948 13.6091 6.96051 13.5998C7.32621 13.5904 7.65101 13.8326 7.74725 14.1864L10.3707 23.8308L11.1933 18.0219C11.2412 17.6835 11.4992 17.4135 11.8343 17.3509C12.1695 17.2883 12.5072 17.447 12.6734 17.7454L14.1503 20.3957H20.1602C20.4529 20.3957 20.722 20.5571 20.8603 20.8157L22.3545 23.6087L23.1189 15.9029C23.1569 15.5199 23.4627 15.219 23.8453 15.1879C24.228 15.1568 24.5781 15.4045 24.6771 15.7763L27.2259 25.3473L28.1311 21.0283C28.2084 20.6596 28.5328 20.3957 28.9086 20.3957H32.5976L34.2707 13.3064C34.3548 12.95 34.6705 12.6971 35.0358 12.6934Z" fill="#00CFC5"/>
</svg>
