<svg width="46" height="46" viewBox="0 0 46 46" fill="none" xmlns="http://www.w3.org/2000/svg">
<path d="M36.3592 42.1668H9.52588C3.77588 42.1668 3.77588 39.5793 3.77588 36.4168V34.5002C3.77588 33.446 4.63838 32.5835 5.69255 32.5835H40.1925C41.2467 32.5835 42.1092 33.446 42.1092 34.5002V36.4168C42.1092 39.5793 42.1092 42.1668 36.3592 42.1668Z" stroke="#00CFC5" stroke-width="3" stroke-linecap="round" stroke-linejoin="round"/>
<path d="M39.7134 24.9168V32.5835H6.26758V24.9168C6.26758 17.5568 11.4617 11.4043 18.3809 9.9285C19.4159 9.6985 20.4892 9.5835 21.6009 9.5835H24.3801C25.4917 9.5835 26.5842 9.6985 27.6192 9.9285C34.5384 11.4235 39.7134 17.5568 39.7134 24.9168Z" stroke="#00CFC5" stroke-width="3" stroke-linecap="round" stroke-linejoin="round"/>
<path d="M27.7916 8.62516C27.7916 9.08516 27.7341 9.50683 27.6191 9.9285C26.5841 9.6985 25.4916 9.5835 24.3799 9.5835H21.6008C20.4891 9.5835 19.4158 9.6985 18.3808 9.9285C18.2658 9.50683 18.2083 9.08516 18.2083 8.62516C18.2083 5.98016 20.3549 3.8335 22.9999 3.8335C25.6449 3.8335 27.7916 5.98016 27.7916 8.62516Z" stroke="#00CFC5" stroke-width="3" stroke-linecap="round" stroke-linejoin="round"/>
<path d="M28.75 21.0835H17.25" stroke="#00CFC5" stroke-width="3" stroke-linecap="round" stroke-linejoin="round"/>
</svg>
