<svg width="58" height="58" viewBox="0 0 58 58" fill="none" xmlns="http://www.w3.org/2000/svg">
<path d="M29.0001 29.0002C35.6735 29.0002 41.0834 23.5903 41.0834 16.9168C41.0834 10.2434 35.6735 4.8335 29.0001 4.8335C22.3266 4.8335 16.9167 10.2434 16.9167 16.9168C16.9167 23.5903 22.3266 29.0002 29.0001 29.0002Z" stroke="#00CFC5" stroke-width="3" stroke-linecap="round" stroke-linejoin="round"/>
<path d="M8.24072 53.1667C8.24072 43.8142 17.545 36.25 29 36.25" stroke="#00CFC5" stroke-width="3" stroke-linecap="round" stroke-linejoin="round"/>
<path d="M43.9834 51.7167C48.2544 51.7167 51.7167 48.2544 51.7167 43.9834C51.7167 39.7124 48.2544 36.25 43.9834 36.25C39.7124 36.25 36.25 39.7124 36.25 43.9834C36.25 48.2544 39.7124 51.7167 43.9834 51.7167Z" stroke="#00CFC5" stroke-width="3" stroke-linecap="round" stroke-linejoin="round"/>
<path d="M53.1667 53.1667L50.75 50.75" stroke="#00CFC5" stroke-width="3" stroke-linecap="round" stroke-linejoin="round"/>
</svg>
