<svg width="48" height="52" viewBox="0 0 48 52" fill="none" xmlns="http://www.w3.org/2000/svg">
<path d="M36.3431 37.4222C37.3262 37.4222 38.1258 38.2881 38.1258 39.3527C38.1258 40.4172 37.3262 41.2827 36.3431 41.2827C35.3599 41.2827 34.5602 40.4171 34.5602 39.3527C34.5602 38.2882 35.3599 37.4222 36.3431 37.4222Z" fill="#00CFC5"/>
<path d="M41.0057 27.7907C46.897 30.5746 49.5982 38.0295 47.0269 44.4081C45.1717 49.0114 40.9751 51.9852 36.3362 51.9852C34.7235 51.9837 33.1319 51.6224 31.6799 50.9282C27.429 48.9194 24.6835 44.3764 24.6857 39.3517C24.6797 37.6231 25.012 35.9097 25.6644 34.306C25.7104 34.1922 25.7295 34.0696 25.7203 33.9474C25.7111 33.8252 25.6739 33.7067 25.6114 33.601C25.5535 33.5002 25.47 33.4162 25.3692 33.3571C25.2684 33.2981 25.1538 33.266 25.0366 33.2641H11.657C9.91795 33.2641 8.50337 34.7959 8.50337 36.6801V37.1606C8.49971 37.309 8.54132 37.4551 8.62274 37.5799C8.70417 37.7047 8.82164 37.8024 8.95992 37.8602C10.653 38.5085 12.0101 39.831 12.7845 41.5855C13.5578 43.3443 13.6543 45.3221 13.0559 47.1465C12.1077 50.0494 9.5615 52 6.71955 52C5.95339 51.9988 5.19409 51.8571 4.48018 51.582C0.986854 50.2443 -0.849983 46.0783 0.384509 42.2954C1.06432 40.2132 2.55697 38.5969 4.48018 37.8605C4.6186 37.8027 4.73623 37.7051 4.8178 37.5803C4.89938 37.4556 4.94111 37.3094 4.93757 37.1608V36.6821C4.9454 33.6139 6.74572 30.865 9.41736 29.8418C9.55575 29.7841 9.67334 29.6864 9.75487 29.5616C9.8364 29.4369 9.87808 29.2907 9.87447 29.1421V12.6226C9.87447 12.2121 9.56762 11.8804 9.18881 11.8804H6.72016C5.73708 11.8804 4.9374 11.0142 4.9374 9.94967C4.9374 8.88518 5.73708 8.01925 6.72016 8.01925H36.3427C36.7209 8.01925 37.0281 7.68662 37.0281 7.27648C37.0281 3.26442 40.0429 0 43.7483 0H46.2173C47.1999 0 47.9995 0.865869 47.9995 1.93041C47.9995 2.99496 47.1999 3.86111 46.2173 3.86111H43.7487C42.0094 3.86111 40.5946 5.39367 40.5946 7.27648V27.1104C40.5918 27.2505 40.6288 27.3886 40.7015 27.5089C40.7742 27.6292 40.8796 27.7268 41.0057 27.7907ZM36.3431 48.1141C40.8047 48.1141 44.4344 44.1839 44.4344 39.3527C44.4344 34.5215 40.8047 30.5912 36.3431 30.5912C31.8815 30.5912 28.2518 34.5215 28.2518 39.3527C28.2518 44.1839 31.8815 48.1141 36.3431 48.1141ZM13.4403 12.6226V17.9691C13.4403 18.3793 13.7471 18.7113 14.1259 18.7113H36.3431C36.7213 18.7113 37.0285 18.3793 37.0285 17.9691V12.6226C37.0285 12.2121 36.7213 11.8804 36.3431 11.8804H14.1259C13.7471 11.8804 13.4403 12.2121 13.4403 12.6226ZM14.1259 29.403H28.9372C29.0889 29.4021 29.2354 29.3487 29.3514 29.2521C31.3344 27.6256 33.7967 26.7304 36.3396 26.7304C36.4315 26.7299 36.5224 26.7104 36.6063 26.6731C36.6902 26.6358 36.7653 26.5816 36.8268 26.514C36.9577 26.3694 37.0296 26.1817 37.0283 25.9876V23.3147C37.0283 22.9046 36.7211 22.5726 36.3429 22.5726H14.1258C13.747 22.5726 13.4401 22.9046 13.4401 23.3147V28.6602C13.4401 29.0707 13.7471 29.403 14.1259 29.403ZM9.87452 44.6987C9.87452 42.8151 8.45996 41.2828 6.72038 41.2828C4.98081 41.2828 3.56575 42.8153 3.56575 44.6987C3.56575 46.5822 4.9811 48.1141 6.72038 48.1141C8.45967 48.1141 9.87452 46.5815 9.87452 44.6987Z" fill="#00CFC5"/>
</svg>
